<svg width="43" height="43" viewBox="0 0 43 43" fill="none" xmlns="http://www.w3.org/2000/svg">
<path fill-rule="evenodd" clip-rule="evenodd" d="M23.1754 12.5191C23.544 11.6009 24.5873 11.1553 25.5056 11.524C26.9011 12.0843 28.1635 12.9311 29.2113 14.0098C30.2591 15.0885 31.0689 16.375 31.5885 17.7862C31.9303 18.7148 31.4546 19.7447 30.5261 20.0865C29.5975 20.4284 28.5676 19.9527 28.2257 19.0241C27.8794 18.0833 27.3395 17.2257 26.641 16.5065C25.9425 15.7874 25.1008 15.2229 24.1705 14.8493C23.2522 14.4807 22.8067 13.4374 23.1754 12.5191Z" fill="white"/>
<path fill-rule="evenodd" clip-rule="evenodd" d="M23.9428 5.46072C24.1989 4.50492 25.1814 3.93771 26.1372 4.19382C29.175 5.00781 31.9451 6.60712 34.169 8.83099C36.3929 11.0549 37.9922 13.8249 38.8062 16.8628C39.0623 17.8186 38.4951 18.801 37.5393 19.0572C36.5835 19.3133 35.601 18.746 35.3449 17.7903C34.6937 15.36 33.4143 13.1439 31.6352 11.3648C29.8561 9.58569 27.64 8.30625 25.2097 7.65505C24.2539 7.39895 23.6867 6.41651 23.9428 5.46072Z" fill="white"/>
<path fill-rule="evenodd" clip-rule="evenodd" d="M8.90187 9.34446C13.2345 7.89933 17.6127 10.6133 18.8288 15.0072C19.6575 18.0014 18.8727 21.1409 16.9589 23.2908C17.3509 23.7984 17.7792 24.2864 18.2441 24.7517C18.7068 25.2147 19.1919 25.6414 19.6964 26.032C21.8454 24.1032 24.9945 23.3096 27.9973 24.1419C32.3903 25.3596 35.0992 29.7412 33.6563 34.0736C32.7096 36.9162 30.9444 38.6433 28.59 39.2118C26.4024 39.74 24.0437 39.1785 21.9634 38.3137C17.7735 36.572 13.6362 33.1411 11.7467 31.2502C9.81258 29.3147 6.39658 25.1714 4.67062 20.9894C3.81355 18.9127 3.26169 16.5627 3.79116 14.3851C4.36079 12.0424 6.0791 10.2859 8.90187 9.34446ZM15.3753 15.9631C14.6359 13.2915 12.1791 12.0288 10.0357 12.7437C8.15157 13.3721 7.49808 14.3062 7.27305 15.2317C7.00785 16.3224 7.23846 17.8184 7.98295 19.6224C9.46012 23.2016 12.5237 26.9583 14.2814 28.7174C15.9966 30.4339 19.7494 33.5127 23.3389 35.0049C25.1483 35.7571 26.6516 35.9935 27.749 35.7286C28.6795 35.5039 29.6221 34.8466 30.2566 32.9413C30.9721 30.7929 29.7073 28.3343 27.0401 27.595C25.0551 27.0448 23.0144 27.6823 21.7998 28.983C21.0155 29.823 19.5205 30.3018 18.2485 29.414C17.3535 28.7893 16.5036 28.0793 15.7094 27.2846C14.9139 26.4885 14.2037 25.6365 13.5789 24.7396C12.6967 23.473 13.1674 21.9838 14.0013 21.1976C15.2924 19.9804 15.9236 17.9441 15.3753 15.9631Z" fill="white"/>
</svg>
