<svg width="30" height="30" viewBox="0 0 30 30" fill="none" xmlns="http://www.w3.org/2000/svg">
<path d="M3.15785 14.2088H-5.72205e-06C-5.72205e-06 6.10887 6.11518 0 14.2261 0V3.15786C7.81253 3.15786 3.15785 7.80464 3.15785 14.2088Z" fill="white"/>
<path d="M14.2103 9.47353C10.8898 9.47353 9.47349 10.8898 9.47349 14.2103H6.31563C6.31563 9.11827 9.11823 6.31567 14.2103 6.31567V9.47353ZM8.80718 18.0676C9.43717 17.4945 10.4098 17.5245 11.0035 18.1355L14.7818 22.0213C15.6913 21.8476 17.5197 21.2776 19.4018 19.4002C21.2839 17.5166 21.8539 15.6835 22.0228 14.7803L18.1402 11.0004C17.5276 10.4067 17.4992 9.43563 18.0723 8.80406L23.9065 2.38888C24.4796 1.75573 25.4538 1.69573 26.1028 2.25151L29.529 5.1899C29.8022 5.46463 29.9648 5.82778 29.9869 6.21462C30.0106 6.60935 30.4622 15.9598 23.2117 23.2134C16.8866 29.537 8.9635 29.9996 6.78142 29.9996C6.46247 29.9996 6.26669 29.9901 6.21458 29.987C5.82775 29.9649 5.46459 29.8022 5.19144 29.5275L2.25463 26.0996C1.69727 25.4507 1.76043 24.4781 2.39042 23.9033L8.80718 18.0676Z" fill="white"/>
</svg>
