<svg width="18" height="20" viewBox="0 0 18 20" fill="none" xmlns="http://www.w3.org/2000/svg">
<path fill-rule="evenodd" clip-rule="evenodd" d="M2.63302 2.53726L3.0243 1.75468C3.30662 1.19004 3.88373 0.833374 4.51502 0.833374H13.485C14.1162 0.833374 14.6934 1.19004 14.9757 1.75468L15.367 2.53726C15.978 2.66867 16.4765 3.13684 16.6329 3.76248L17.0496 5.42915C17.2728 6.32214 16.7299 7.22703 15.8369 7.45028C15.7449 7.47328 15.6511 7.48837 15.5567 7.49542L13.8894 19.1667H4.11054L2.44323 7.49549C1.5807 7.43202 0.900635 6.71211 0.900635 5.83337C0.900635 5.6971 0.917347 5.56135 0.950397 5.42915L1.36706 3.76248C1.52347 3.13684 2.02201 2.66867 2.63302 2.53726ZM4.12744 7.50004H13.8724L12.4439 17.5H5.55601L4.12744 7.50004ZM2.98397 4.16671H3.68168L4.51502 2.50004H13.485L14.3183 4.16671H15.016L15.4327 5.83337H2.5673L2.98397 4.16671Z" fill="white"/>
</svg>
