<svg width="18" height="18" viewBox="0 0 18 18" fill="none" xmlns="http://www.w3.org/2000/svg">
<path fill-rule="evenodd" clip-rule="evenodd" d="M12.6979 0.666626C13.2435 0.666626 13.7665 0.884476 14.1485 1.26948L16.7326 3.85356C17.1173 4.23829 17.3335 4.7601 17.3335 5.30419C17.3335 5.84828 17.1173 6.37009 16.7326 6.75482L7.298 16.1864C6.71594 16.8579 5.89083 17.2704 4.94558 17.3352H0.666748V16.5019L0.669454 12.9894C0.740447 12.1107 1.14897 11.2936 1.77216 10.7445L11.2462 1.27048C11.6304 0.883984 12.1529 0.666626 12.6979 0.666626ZM4.88673 15.6706C5.33192 15.6391 5.74632 15.4319 6.07908 15.0513L12.3807 8.74972L9.25202 5.62095L2.9135 11.9579C2.57587 12.2566 2.36701 12.6743 2.33341 13.0565V15.6691L4.88673 15.6706ZM10.4307 4.44259L13.5592 7.57121L15.5541 5.57631C15.6262 5.50414 15.6668 5.40626 15.6668 5.30419C15.6668 5.20213 15.6262 5.10424 15.5541 5.03207L12.9677 2.44567C12.8963 2.37375 12.7992 2.33329 12.6979 2.33329C12.5966 2.33329 12.4994 2.37375 12.4281 2.44567L10.4307 4.44259Z" fill="white"/>
</svg>
