<svg width="18" height="18" viewBox="0 0 18 18" fill="none" xmlns="http://www.w3.org/2000/svg">
<path fill-rule="evenodd" clip-rule="evenodd" d="M7.44 14C3.46355 14 0.240005 11.0152 0.240005 7.33329C0.240005 3.65139 3.46355 0.666626 7.44 0.666626C11.4165 0.666626 14.64 3.65139 14.64 7.33329C14.64 8.87389 14.0756 10.2924 13.1279 11.4213L17.9764 15.9107L16.7036 17.0892L11.8551 12.5998C10.6359 13.4774 9.10384 14 7.44 14ZM12.84 7.33329C12.84 10.0947 10.4223 12.3333 7.44001 12.3333C4.45767 12.3333 2.04001 10.0947 2.04001 7.33329C2.04001 4.57187 4.45767 2.33329 7.44001 2.33329C10.4223 2.33329 12.84 4.57187 12.84 7.33329Z" fill="white"/>
</svg>
