<svg width="32" height="20" viewBox="0 0 32 20" fill="none" xmlns="http://www.w3.org/2000/svg">
<path d="M31.0586 1.66406C31.2344 0.960938 31.0586 0.375 30.0039 0.375H26.5469C25.668 0.375 25.2578 0.84375 25.0234 1.37109C25.0234 1.37109 23.2656 5.64844 20.8047 8.46094C19.9844 9.22266 19.6328 9.51562 19.1641 9.51562C18.9883 9.51562 18.6367 9.22266 18.6367 8.51953V1.66406C18.6367 0.785156 18.4023 0.375 17.6406 0.375H12.25C11.6641 0.375 11.3711 0.785156 11.3711 1.19531C11.3711 2.01562 12.6016 2.19141 12.7188 4.53516V9.63281C12.7188 10.7461 12.543 10.9805 12.0742 10.9805C10.9023 10.9805 8.08984 6.64453 6.39062 1.72266C6.03906 0.785156 5.6875 0.375 4.80859 0.375H1.35156C0.414062 0.375 0.179688 0.84375 0.179688 1.37109C0.179688 2.30859 1.35156 6.82031 5.62891 12.8555C8.5 16.957 12.543 19.125 16.1758 19.125C18.3438 19.125 18.6367 18.6562 18.6367 17.8359C18.6367 13.9102 18.4609 13.5 19.5156 13.5C20.043 13.5 20.9219 13.793 22.9727 15.7852C25.3164 18.1289 25.7266 19.125 27.0156 19.125H30.4727C31.4688 19.125 31.9375 18.6562 31.6445 17.6602C31 15.668 26.6055 11.4492 26.3711 11.1562C25.8438 10.5117 26.0195 10.2188 26.3711 9.63281C26.3711 9.63281 30.5898 3.65625 31.0586 1.66406Z" fill="white"/>
</svg>
